<svg id="Capa_1" data-name="Capa 1" xmlns="http://www.w3.org/2000/svg" viewBox="0 0 462.93 45.73"><title>Mesa de trabajo 1@1x</title><path d="M220.18,18h53.37V45.73H204.69c5.49-5.94,11.06-9.08,18.13-9.12,12.8-.06,25.61,0,38.84,0V27.49H208.33c0-8.83-.07-17.1.11-25.37,0-.76,1.65-2.14,2.54-2.14,20.78-.13,41.55-.1,62.52-.1-2.14,5.78-7.66,9.17-14.76,9.22-11,.08-22,0-33,0h-5.57Z"/><path d="M45,45.65H32.94V9.9C23.39,7.61,13.27,12.31,5,5.61,3.43,4.32,2.29,2.48.26.09H75.91c-1.46,5.44-6.47,9-13.08,9.14-5.79.12-11.58,0-17.81,0Z"/><path d="M318.94-.14V36.7h52.48c-2.38,5.78-6.18,9.1-11.05,9.22-17.45.42-34.93.17-53.2.17V36.9c0-10.5.21-21-.1-31.5-.13-4.35,1-6.22,5.52-5.58A50,50,0,0,0,318.94-.14Z"/><path d="M462.27,18.62c0,8.35.13,16.33-.14,24.3,0,1.12-1.84,2.88-3.06,3.12-2.54.49-5.23.15-8.32.15V27.93H408.08V45.87H396.73V18.62Z"/><path d="M394.6,0H463c-1,5-5.72,9.05-11.84,9.15-14.66.25-29.34.33-44-.07C401.66,8.93,397.32,5.81,394.6,0Z"/><path d="M174.68,18.32c-3,5.86-7.32,8.84-13,8.94-14.32.24-28.64.22-42.95,0-5.93-.07-10.23-3.19-13.42-9Z"/><path d="M105.65,0h68.06c-1.09,5.06-5.86,9.07-12,9.17-14.45.25-28.9.22-43.35,0C112.79,9.08,108.52,5.77,105.65,0Z"/><path d="M105.45,36.74h68.32c-.9,4.95-5.17,9-11.32,9.17-15,.37-30,.44-44.93,0C112.32,45.76,108,42.72,105.45,36.74Z"/></svg>